<svg width="1000" height="1000" viewBox="0 0 1000 1000" fill="none" xmlns="http://www.w3.org/2000/svg">
<path d="M1000 500C1000 776.142 776.142 1000 500 1000C223.858 1000 0 776.142 0 500C0 223.858 223.858 0 500 0C776.142 0 1000 223.858 1000 500Z" fill="url(#paint0_linear_8_29)" fill-opacity="0.8"/>
<path fill-rule="evenodd" clip-rule="evenodd" d="M266 50.8759C285.468 41.3217 305.648 32.9961 326.439 26H396.8V501.275C414.585 472.903 436.585 450.078 462.8 432.8C498.8 409.6 539.6 398 585.2 398C633.2 398 677.6 409.6 718.4 432.8C759.2 455.2 792 488 816.8 531.2C841.6 573.6 854 625.2 854 686C854 746 841.6 797.6 816.8 840.8C792 884 759.2 917.2 718.4 940.4C677.6 962.8 633.2 974 585.2 974C539.6 974 498.8 962.4 462.8 939.2C436.585 921.922 414.585 899.097 396.8 870.725V962H294.462C284.819 957.998 275.328 953.702 266 949.124V50.8759ZM396.8 686C396.8 723.6 404.4 755.6 419.6 782C435.6 807.6 455.6 827.2 479.6 840.8C503.6 854.4 528 861.2 552.8 861.2C583.2 861.2 610.8 854.4 635.6 840.8C661.2 827.2 681.6 807.2 696.8 780.8C712 754.4 719.6 722.8 719.6 686C719.6 649.2 712 617.6 696.8 591.2C681.6 564.8 661.2 544.8 635.6 531.2C610.8 517.6 583.2 510.8 552.8 510.8C528 510.8 503.6 517.6 479.6 531.2C455.6 544.8 435.6 564.8 419.6 591.2C404.4 616.8 396.8 648.4 396.8 686Z" fill="white"/>
<defs>
<linearGradient id="paint0_linear_8_29" x1="500" y1="0" x2="500" y2="1000" gradientUnits="userSpaceOnUse">
<stop offset="0.0989583" stop-color="#1877F2" stop-opacity="0.8"/>
<stop offset="0.228" stop-color="#1877F2"/>
<stop offset="0.395833" stop-color="#1877F2"/>
</linearGradient>
</defs>
</svg>
